# xmcd
#
# Track frame offsets:
# 150
# 18036
# 35100
# 46227
# 75099
# 95426
# 114710
# 143452
# 192269
# 214064
# 243764
# 278699
#
# Disc length: 4256 seconds
#
#
# Revision: 0
# Processed by: cddbd v1.4PL0 Copyright (c) Steve Scherf et al.
# Submitted via: FreeRIP 2.00 
#
DISCID=90109e0c
DTITLE=The Not Yet Famous Blues Band - Trio
DYEAR=1900
DGENRE=Blues
TTITLE0=Consider It Done
TTITLE1=I've Been Living In Paradise
TTITLE2=Carabina
TTITLE3=Evil Heart
TTITLE4=High Is The Mountain
TTITLE5=Piscina
TTITLE6=Noite e Dia
TTITLE7=Booze
TTITLE8=Love Come Set Me Free
TTITLE9=No
TTITLE10=My Babies Eyes
TTITLE11=Trouble More
EXTD=
EXTT0=
EXTT1=
EXTT2=
EXTT3=
EXTT4=
EXTT5=
EXTT6=
EXTT7=
EXTT8=
EXTT9=
EXTT10=
EXTT11=
PLAYORDER=
